# Blender v2.80 (sub 75) OBJ File: 'gameJam2020.blend'
# www.blender.org
o generator.top_Cylinder.036
v -0.500000 0.278440 -0.000000
v -0.353554 0.278440 0.353553
v -0.000000 0.278440 0.500000
v 0.353553 0.278440 0.353553
v 0.500000 0.278440 -0.000000
v 0.353553 0.278440 -0.353554
v -0.000000 0.278440 -0.500000
v -0.353553 0.278440 -0.353554
v -0.033028 3.202129 0.033028
v -0.000000 3.256037 0.000000
v -0.046709 3.202129 0.000000
v -0.000000 3.202129 0.046709
v 0.033028 3.202129 0.033028
v 0.046709 3.202129 0.000000
v 0.033028 3.202129 -0.033028
v -0.000000 3.202129 -0.046709
v -0.033028 3.202129 -0.033028
v -0.353554 0.528440 0.353553
v -0.500000 0.528440 -0.000000
v -0.000000 0.528440 0.500000
v 0.353553 0.528440 0.353553
v 0.500000 0.528440 -0.000000
v 0.353553 0.528440 -0.353554
v -0.000000 0.528440 -0.500000
v -0.353553 0.528440 -0.353554
v -0.353554 0.771191 0.353553
v -0.500000 0.771191 -0.000000
v -0.000000 0.771191 0.500000
v 0.353553 0.771191 0.353553
v 0.500000 0.771191 -0.000000
v 0.353553 0.771191 -0.353554
v -0.000000 0.771191 -0.500000
v -0.353553 0.771191 -0.353554
v -0.000000 1.778440 -0.500000
v -0.000000 1.278440 -0.500000
v -0.353553 1.278440 -0.353554
v -0.353553 1.778440 -0.353554
v -0.500000 1.278440 -0.000000
v -0.500000 1.778440 -0.000000
v 0.353553 1.778440 -0.353554
v 0.353553 1.278440 -0.353554
v 0.500000 1.778440 -0.000000
v 0.500000 1.278440 -0.000000
v 0.353553 1.778440 0.353553
v 0.353553 1.278440 0.353553
v -0.000000 1.778440 0.500000
v -0.000000 1.278440 0.500000
v -0.353554 1.778440 0.353553
v -0.353554 1.278440 0.353553
v 0.296595 0.573625 -0.296595
v 0.000000 0.573625 -0.419449
v 0.000000 0.765944 -0.419449
v 0.296595 0.765944 -0.296595
v -0.296595 0.573625 -0.296595
v -0.296595 0.765944 -0.296595
v 0.419448 0.573625 -0.000000
v 0.419448 0.765944 -0.000000
v 0.296595 0.573625 0.296595
v 0.296595 0.765944 0.296595
v -0.000000 0.573625 0.419448
v -0.000000 0.765944 0.419448
v -0.296595 0.573625 0.296594
v -0.296595 0.765944 0.296594
v -0.419448 0.573625 -0.000000
v -0.419448 0.765944 -0.000000
v -0.500000 1.137168 -0.000000
v -0.353554 1.137168 0.353553
v -0.000000 1.137168 0.500000
v 0.353554 1.137168 0.353553
v 0.500000 1.137168 -0.000000
v 0.353554 1.137168 -0.353553
v 0.000000 1.137168 -0.500000
v -0.353553 1.137168 -0.353554
v -0.500000 0.946083 -0.000000
v -0.353554 0.946083 0.353553
v -0.000000 0.946083 0.500000
v 0.353554 0.946083 0.353553
v 0.500000 0.946083 -0.000000
v 0.353554 0.946083 -0.353554
v 0.000000 0.946083 -0.500000
v -0.353553 0.946083 -0.353554
v 0.288709 1.103984 -0.288709
v 0.408297 1.103984 -0.000000
v 0.288709 0.979267 0.288709
v 0.408297 0.979267 -0.000000
v -0.000000 0.979267 0.408296
v 0.288709 1.103984 0.288709
v 0.000000 1.103984 -0.408297
v 0.288709 0.979267 -0.288709
v -0.288709 1.103984 -0.288709
v 0.000000 0.979267 -0.408297
v -0.000000 1.103984 0.408296
v -0.288709 0.979267 -0.288709
v -0.408297 0.979267 -0.000000
v -0.408297 1.103984 -0.000000
v -0.288709 0.979267 0.288709
v -0.288709 1.103984 0.288709
v 0.692251 2.065499 -0.000000
v 0.692251 1.862225 -0.000000
v 0.489495 1.862225 -0.489495
v 0.489495 2.065499 -0.489495
v -0.000000 1.862225 -0.692251
v -0.000000 2.065499 -0.692251
v 0.489495 2.065499 0.489495
v 0.489495 1.862225 0.489495
v -0.000000 2.065499 0.692251
v -0.000000 1.862225 0.692251
v -0.489495 2.065499 0.489495
v -0.489495 1.862225 0.489495
v -0.692251 2.065499 -0.000000
v -0.692251 1.862225 -0.000000
v -0.489495 2.065499 -0.489495
v -0.489495 1.862225 -0.489495
v 0.353553 2.149283 -0.353553
v 0.500000 2.149283 -0.000000
v 0.353553 2.149283 0.353553
v -0.000000 2.149283 0.500000
v -0.353554 2.149283 0.353553
v -0.500000 2.149283 -0.000000
v -0.353554 2.149283 -0.353554
v -0.000000 2.149283 -0.500000
v -0.000000 2.237495 0.234033
v 0.165486 2.237495 0.165486
v 0.234032 2.237495 -0.000000
v -0.165486 2.237495 0.165486
v -0.234033 2.237495 0.000000
v -0.165486 2.237495 -0.165486
v -0.000000 2.237495 -0.234033
v 0.165486 2.237495 -0.165486
v -0.000000 2.267855 0.046709
v 0.033028 2.267855 0.033028
v 0.046709 2.267855 -0.000000
v -0.033028 2.267855 0.033028
v -0.046709 2.267855 -0.000000
v -0.033028 2.267855 -0.033028
v -0.000000 2.267855 -0.046709
v 0.033028 2.267855 -0.033028
vt 0.778407 0.526468
vt 0.779117 0.512569
vt 0.785240 0.525066
vt 0.771753 0.524378
vt 0.766948 0.519321
vt 0.765200 0.512569
vt 0.766948 0.505817
vt 0.771753 0.500761
vt 0.778407 0.498671
vt 0.785240 0.500072
vt 0.837759 0.482479
vt 0.788502 0.453585
vt 0.812039 0.425036
vt 0.850960 0.452009
vt 0.744999 0.406461
vt 0.779635 0.383612
vt 0.714018 0.341624
vt 0.758652 0.328624
vt 0.702321 0.261994
vt 0.754375 0.262846
vt 0.716154 0.172952
vt 0.771519 0.190997
vt 0.760240 0.082475
vt 0.813730 0.119277
vt 0.834870 0.000256
vt 0.888231 0.053151
vt 0.627624 0.508898
vt 0.543595 0.555546
vt 0.510545 0.484790
vt 0.599377 0.451890
vt 0.671814 0.565003
vt 0.585669 0.622670
vt 0.487556 0.409093
vt 0.581475 0.390791
vt 0.476173 0.327913
vt 0.573673 0.324242
vt 0.478400 0.244241
vt 0.577957 0.256139
vt 0.493953 0.160322
vt 0.591582 0.187113
vt 0.522094 0.078798
vt 0.618751 0.117850
vt 0.557088 0.000256
vt 0.659707 0.045977
vt 0.476173 0.843480
vt 0.658450 0.843480
vt 0.658450 0.850455
vt 0.476173 0.850455
vt 0.898179 0.078559
vt 0.831029 0.133862
vt 0.926405 0.280248
vt 0.911381 0.280226
vt 0.912779 0.215305
vt 0.927776 0.215162
vt 0.855909 0.441611
vt 0.897307 0.453053
vt 0.898179 0.465378
vt 0.921683 0.410230
vt 0.906515 0.410213
vt 0.909293 0.345231
vt 0.924328 0.345415
vt 0.792055 0.376716
vt 0.820831 0.415846
vt 0.927067 0.084008
vt 0.912349 0.085754
vt 0.898723 0.016443
vt 0.913521 0.006621
vt 0.093722 0.227428
vt 0.056071 0.214133
vt 0.103455 0.134495
vt 0.134162 0.160679
vt 0.774217 0.325353
vt 0.917313 0.559551
vt 0.898692 0.550570
vt 0.905465 0.476639
vt 0.921827 0.476858
vt 0.772116 0.264492
vt 0.789994 0.198633
vt 0.913416 0.150496
vt 0.928374 0.150089
vt 0.602625 0.259492
vt 0.600214 0.323700
vt 0.954584 0.478281
vt 0.962397 0.556656
vt 0.960387 0.148512
vt 0.959846 0.213935
vt 0.605379 0.385750
vt 0.620425 0.443758
vt 0.958549 0.279356
vt 0.956576 0.344901
vt 0.954170 0.411132
vt 0.648491 0.495805
vt 0.618519 0.195494
vt 0.643149 0.130656
vt 0.687652 0.062152
vt 0.073949 0.106666
vt 0.158271 0.040070
vt 0.176692 0.075438
vt 0.476173 0.829530
vt 0.658450 0.829531
vt 0.658450 0.836506
vt 0.476173 0.836505
vt 0.701809 0.081746
vt 0.661066 0.139682
vt 0.972904 0.476868
vt 0.981637 0.546314
vt 0.620664 0.261737
vt 0.617665 0.323014
vt 0.622002 0.382604
vt 0.975310 0.345022
vt 0.972973 0.410985
vt 0.635623 0.437575
vt 0.958261 0.000256
vt 0.981637 0.008906
vt 0.979508 0.081899
vt 0.959589 0.082444
vt 0.082073 0.645271
vt 0.113493 0.690884
vt 0.093256 0.719791
vt 0.040254 0.707359
vt 0.661222 0.486456
vt 0.701809 0.528711
vt 0.694064 0.545275
vt 0.977240 0.279308
vt 0.978517 0.213699
vt 0.636381 0.200792
vt 0.979162 0.148108
vt 0.018733 0.198670
vt 0.658450 0.857430
vt 0.476173 0.857430
vt 0.058196 0.394382
vt 0.020574 0.407747
vt 0.000256 0.303727
vt 0.040408 0.304768
vt 0.106759 0.471068
vt 0.076545 0.497043
vt 0.263331 0.000256
vt 0.278606 0.040564
vt 0.278606 0.548730
vt 0.266794 0.592714
vt 0.160834 0.560422
vt 0.180004 0.524166
vt 0.181730 0.638957
vt 0.199871 0.601600
vt 0.271218 0.678380
vt 0.232732 0.693371
vt 0.271218 0.782827
vt 0.232957 0.767597
vt 0.182578 0.821896
vt 0.200137 0.859072
vt 0.096277 0.866354
vt 0.108758 0.827218
vt 0.272380 0.506147
vt 0.195626 0.489526
vt 0.094532 0.379244
vt 0.080036 0.303677
vt 0.015344 0.800998
vt 0.051083 0.780788
vt 0.134931 0.444107
vt 0.000256 0.698178
vt 0.196692 0.112338
vt 0.277009 0.089560
vt 0.106367 0.633383
vt 0.094769 0.593227
vt 0.058104 0.611841
vt 0.125017 0.775726
vt 0.159328 0.773159
vt 0.182306 0.713367
vt 0.158346 0.688321
vt 0.098155 0.754123
vt 0.182626 0.747837
vt 0.147896 0.734549
vt 0.147876 0.727477
vt 0.123219 0.686448
vt 0.129619 0.728694
vt 0.130546 0.735711
vt 0.136018 0.740188
vt 0.143071 0.739716
vt 0.142992 0.722340
vt 0.135886 0.722019
vt 0.133782 0.722937
vt 0.476173 0.864405
vt 0.658450 0.864405
vt 0.658450 0.871379
vt 0.476173 0.871380
vt 0.658450 0.878354
vt 0.476173 0.878355
vt 0.658450 0.885329
vt 0.476173 0.885330
vt 0.887936 0.498159
vt 0.702321 0.937110
vt 0.739843 0.937110
vt 0.739843 0.999744
vt 0.702321 0.999744
vt 0.702321 0.874476
vt 0.739843 0.874476
vt 0.702321 0.811842
vt 0.739843 0.811842
vt 0.702321 0.749207
vt 0.739843 0.749207
vt 0.702321 0.686573
vt 0.739843 0.686573
vt 0.702321 0.623939
vt 0.739843 0.623939
vt 0.702321 0.561305
vt 0.739843 0.561305
vt 0.702321 0.498671
vt 0.739843 0.498671
vt 0.764688 0.925453
vt 0.764688 0.986422
vt 0.740356 0.986422
vt 0.740356 0.925453
vt 0.764688 0.864484
vt 0.740356 0.864484
vt 0.740356 0.803515
vt 0.764688 0.803515
vt 0.740356 0.742546
vt 0.764688 0.742546
vt 0.740356 0.681577
vt 0.764688 0.681577
vt 0.740356 0.620609
vt 0.764688 0.620609
vt 0.740356 0.559640
vt 0.764688 0.559640
vt 0.764688 0.498671
vt 0.740356 0.498671
vn -0.7213 0.6249 0.2988
vn -0.2988 0.6249 0.7213
vn 0.2988 0.6249 0.7213
vn 0.7213 0.6249 0.2988
vn 0.7213 0.6249 -0.2988
vn 0.2988 0.6249 -0.7213
vn -0.2988 0.6249 -0.7213
vn -0.7213 0.6249 -0.2988
vn -0.3827 -0.0000 0.9239
vn 0.3827 -0.0000 0.9239
vn 0.9239 0.0000 0.3827
vn 0.9239 0.0000 -0.3827
vn 0.3827 0.0000 -0.9239
vn -0.3827 0.0000 -0.9239
vn -0.9239 0.0000 -0.3827
vn -0.9239 -0.0000 0.3827
vn -0.4795 0.8548 -0.1986
vn 0.0650 -0.9975 -0.0269
vn -0.4795 0.8548 0.1986
vn 0.0269 -0.9975 0.0650
vn 0.1986 0.8548 0.4795
vn -0.0650 -0.9975 -0.0269
vn 0.1633 -0.9044 0.3942
vn 0.4795 0.8548 0.1986
vn -0.0650 -0.9975 0.0269
vn 0.4795 0.8548 -0.1986
vn 0.0650 -0.9975 0.0269
vn 0.1986 0.8548 -0.4795
vn 0.0269 -0.9975 -0.0650
vn -0.1986 0.8548 0.4795
vn -0.0269 -0.9975 0.0650
vn -0.1986 0.8548 -0.4795
vn -0.3369 -0.9311 0.1396
vn -0.3369 0.9311 0.1396
vn 0.3369 -0.9311 0.1396
vn 0.3369 -0.9311 -0.1396
vn 0.1396 0.9311 0.3369
vn 0.1396 -0.9311 -0.3369
vn -0.3369 0.9311 -0.1396
vn -0.3122 0.9412 -0.1293
vn -0.3369 -0.9311 -0.1396
vn 0.3369 0.9311 0.1396
vn 0.3369 0.9311 -0.1396
vn -0.1396 -0.9311 -0.3369
vn -0.1396 0.9311 0.3369
vn -0.1396 -0.9311 0.3369
vn 0.1396 0.9311 -0.3369
vn -0.1396 0.9311 -0.3369
vn -0.1633 0.9044 0.3942
vn 0.1633 0.9044 0.3942
vn 0.3942 0.9044 -0.1633
vn -0.3942 -0.9044 -0.1633
vn 0.1396 -0.9311 0.3369
vn 0.3942 -0.9044 -0.1633
vn 0.1633 0.9044 -0.3942
vn 0.1633 -0.9044 -0.3942
vn -0.1633 0.9044 -0.3942
vn -0.3942 -0.9044 0.1633
vn -0.3942 0.9044 0.1633
vn 0.3942 -0.9044 0.1633
vn 0.3942 0.9044 0.1633
vn -0.1633 -0.9044 0.3942
vn -0.3942 0.9044 -0.1633
vn -0.1633 -0.9044 -0.3942
vn 0.3122 0.9412 -0.1293
vn -0.1293 0.9412 0.3122
vn 0.1293 0.9412 -0.3122
vn -0.1293 0.9412 -0.3122
vn 0.1293 0.9412 0.3122
vn 0.0661 0.9850 0.1596
vn -0.3122 0.9412 0.1293
vn 0.3122 0.9412 0.1293
vn -0.0661 0.9850 -0.1596
vn 0.1596 0.9850 -0.0661
vn -0.0269 -0.9975 -0.0650
vn 0.0661 0.9850 -0.1596
vn 0.1596 0.9850 0.0661
vn -0.1596 0.9850 0.0661
vn -0.1596 0.9850 -0.0661
vn -0.0661 0.9850 0.1596
s off
f 9/1/1 10/2/1 11/3/1
f 12/4/2 10/2/2 9/1/2
f 13/5/3 10/2/3 12/4/3
f 14/6/4 10/2/4 13/5/4
f 15/7/5 10/2/5 14/6/5
f 16/8/6 10/2/6 15/7/6
f 17/9/7 10/2/7 16/8/7
f 11/10/8 10/2/8 17/9/8
f 2/11/9 3/12/9 20/13/9 18/14/9
f 3/12/10 4/15/10 21/16/10 20/13/10
f 4/15/11 5/17/11 22/18/11 21/16/11
f 5/17/12 6/19/12 23/20/12 22/18/12
f 6/19/13 7/21/13 24/22/13 23/20/13
f 7/21/14 8/23/14 25/24/14 24/22/14
f 8/23/15 1/25/15 19/26/15 25/24/15
f 36/27/14 37/28/14 34/29/14 35/30/14
f 38/31/15 39/32/15 37/28/15 36/27/15
f 35/30/13 34/29/13 40/33/13 41/34/13
f 41/34/12 40/33/12 42/35/12 43/36/12
f 43/36/11 42/35/11 44/37/11 45/38/11
f 45/38/10 44/37/10 46/39/10 47/40/10
f 47/40/9 46/39/9 48/41/9 49/42/9
f 49/42/16 48/41/16 39/43/16 38/44/16
f 136/45/13 16/46/13 15/47/13 137/48/13
f 19/26/17 64/49/17 54/50/17 25/24/17
f 30/51/18 57/52/18 53/53/18 31/54/18
f 18/14/19 62/55/19 64/56/19 19/57/19
f 28/58/20 61/59/20 59/60/20 29/61/20
f 21/16/21 58/62/21 60/63/21 20/13/21
f 33/64/22 55/65/22 65/66/22 27/67/22
f 44/68/23 105/69/23 107/70/23 46/71/23
f 22/18/24 56/72/24 58/62/24 21/16/24
f 27/73/25 65/74/25 63/75/25 26/76/25
f 23/20/26 50/77/26 56/72/26 22/18/26
f 29/61/27 59/60/27 57/52/27 30/51/27
f 24/22/28 51/78/28 50/77/28 23/20/28
f 31/54/29 53/53/29 52/79/29 32/80/29
f 20/13/30 60/63/30 62/55/30 18/14/30
f 26/76/31 63/75/31 61/59/31 28/58/31
f 45/38/11 69/81/11 70/82/11 43/36/11
f 26/76/16 75/83/16 74/84/16 27/73/16
f 80/85/13 79/86/13 31/54/13 32/80/13
f 35/30/13 41/34/13 71/87/13 72/88/13
f 25/24/32 54/50/32 51/78/32 24/22/32
f 41/34/12 43/36/12 70/82/12 71/87/12
f 29/61/11 30/51/11 78/89/11 77/90/11
f 28/58/9 76/91/9 75/83/9 26/76/9
f 35/30/14 72/88/14 73/92/14 36/27/14
f 45/38/10 47/40/10 68/93/10 69/81/10
f 67/94/16 49/42/16 38/44/16 66/95/16
f 79/86/12 78/89/12 30/51/12 31/54/12
f 77/90/10 76/91/10 28/58/10 29/61/10
f 68/93/9 47/40/9 49/42/9 67/94/9
f 107/70/9 106/96/9 108/97/9 109/98/9
f 134/99/15 11/100/15 17/101/15 135/102/15
f 66/95/33 95/103/33 97/104/33 67/94/33
f 75/83/34 96/105/34 94/106/34 74/84/34
f 69/81/35 87/107/35 83/108/35 70/82/35
f 70/82/36 83/108/36 82/109/36 71/87/36
f 77/90/37 84/110/37 86/111/37 76/91/37
f 71/87/38 82/109/38 88/112/38 72/88/38
f 74/113/39 94/114/39 93/115/39 81/116/39
f 119/117/40 126/118/40 127/119/40 120/120/40
f 73/92/41 90/121/41 95/122/41 66/123/41
f 78/89/42 85/124/42 84/110/42 77/90/42
f 79/86/43 89/125/43 85/124/43 78/89/43
f 72/88/44 88/112/44 90/121/44 73/92/44
f 76/91/45 86/111/45 96/105/45 75/83/45
f 67/94/46 97/104/46 92/126/46 68/93/46
f 80/85/47 91/127/47 89/125/47 79/86/47
f 81/116/48 93/115/48 91/127/48 80/85/48
f 105/69/10 104/128/10 106/96/10 107/70/10
f 137/48/12 15/47/12 14/129/12 132/130/12
f 100/131/12 101/132/12 98/133/12 99/134/12
f 32/80/14 33/64/14 81/116/14 80/85/14
f 36/27/15 73/92/15 66/123/15 38/31/15
f 102/135/13 103/136/13 101/132/13 100/131/13
f 109/98/16 108/97/16 110/137/16 111/138/16
f 111/139/15 110/140/15 112/141/15 113/142/15
f 118/143/49 108/144/49 106/145/49 117/146/49
f 117/146/50 106/145/50 104/147/50 116/148/50
f 115/149/51 98/150/51 101/151/51 114/152/51
f 39/153/52 111/139/52 113/142/52 37/154/52
f 68/93/53 92/126/53 87/107/53 69/81/53
f 40/155/54 100/131/54 99/134/54 42/156/54
f 114/152/55 101/151/55 103/157/55 121/158/55
f 34/159/56 102/135/56 100/131/56 40/155/56
f 121/158/57 103/157/57 112/160/57 120/120/57
f 48/161/58 109/98/58 111/138/58 39/162/58
f 119/163/59 110/164/59 108/144/59 118/143/59
f 42/156/60 99/134/60 105/69/60 44/68/60
f 116/148/61 104/147/61 98/150/61 115/149/61
f 46/71/62 107/70/62 109/98/62 48/161/62
f 120/120/63 112/160/63 110/165/63 119/117/63
f 37/154/64 113/142/64 102/135/64 34/159/64
f 114/152/65 129/166/65 124/167/65 115/149/65
f 117/146/66 122/168/66 125/169/66 118/143/66
f 121/158/67 128/170/67 129/166/67 114/152/67
f 120/120/68 127/119/68 128/170/68 121/158/68
f 116/148/69 123/171/69 122/168/69 117/146/69
f 123/171/70 131/172/70 130/173/70 122/168/70
f 118/143/71 125/169/71 126/174/71 119/163/71
f 115/149/72 124/167/72 123/171/72 116/148/72
f 127/119/73 135/175/73 136/176/73 128/170/73
f 129/166/74 137/177/74 132/178/74 124/167/74
f 32/80/75 52/79/75 55/65/75 33/64/75
f 128/170/76 136/176/76 137/177/76 129/166/76
f 124/167/77 132/178/77 131/172/77 123/171/77
f 125/169/78 133/179/78 134/180/78 126/174/78
f 126/118/79 134/181/79 135/175/79 127/119/79
f 122/168/80 130/173/80 133/179/80 125/169/80
f 113/142/14 112/141/14 103/136/14 102/135/14
f 131/182/10 13/183/10 12/184/10 130/185/10
f 132/130/11 14/129/11 13/183/11 131/182/11
f 130/185/9 12/184/9 9/186/9 133/187/9
f 99/134/11 98/133/11 104/128/11 105/69/11
f 133/187/16 9/186/16 11/188/16 134/189/16
f 135/102/14 17/101/14 16/46/14 136/45/14
f 27/67/15 74/113/15 81/116/15 33/64/15
f 1/190/16 2/11/16 18/14/16 19/57/16
f 62/191/16 63/192/16 65/193/16 64/194/16
f 60/195/9 61/196/9 63/192/9 62/191/9
f 58/197/10 59/198/10 61/196/10 60/195/10
f 56/199/11 57/200/11 59/198/11 58/197/11
f 50/201/12 53/202/12 57/200/12 56/199/12
f 51/203/13 52/204/13 53/202/13 50/201/13
f 54/205/14 55/206/14 52/204/14 51/203/14
f 64/207/15 65/208/15 55/206/15 54/205/15
f 97/209/16 95/210/16 94/211/16 96/212/16
f 92/213/9 97/209/9 96/212/9 86/214/9
f 92/213/10 86/214/10 84/215/10 87/216/10
f 87/216/11 84/215/11 85/217/11 83/218/11
f 83/218/12 85/217/12 89/219/12 82/220/12
f 82/220/13 89/219/13 91/221/13 88/222/13
f 93/223/14 90/224/14 88/222/14 91/221/14
f 95/225/15 90/224/15 93/223/15 94/226/15
o generator.base_Base
v 0.538067 0.278020 0.390423
v 0.538067 0.278020 -0.390422
v 0.390422 0.278020 -0.538067
v -0.390422 0.278020 0.538067
v 0.390422 0.278020 0.538067
v -0.538067 0.278020 0.390423
v -0.390422 0.278020 -0.538067
v -0.538067 0.278020 -0.390422
v 0.448762 -0.064526 0.618468
v 0.448762 -0.064526 -0.618468
v 0.618468 -0.064526 0.448762
v -0.618468 -0.064526 0.448762
v -0.448762 -0.064526 -0.618468
v -0.618468 -0.064526 -0.448762
v -0.448762 -0.064526 0.618468
v 0.618468 -0.064526 -0.448762
v -0.448762 0.073673 0.618468
v 0.448762 0.073673 0.618468
v -0.618468 0.073673 -0.448762
v -0.618468 0.073673 0.448762
v -0.448762 0.073673 -0.618468
v 0.448762 0.073673 -0.618468
v 0.618468 0.073673 -0.448762
v 0.618468 0.073673 0.448762
vt 0.682008 0.800777
vt 0.476173 0.800777
vt 0.476173 0.651422
vt 0.682008 0.651422
vt 0.312344 0.459673
vt 0.365492 0.457282
vt 0.390948 0.606823
vt 0.342875 0.622252
vt 0.504413 0.623182
vt 0.653768 0.623182
vt 0.326044 0.675958
vt 0.355849 0.663708
vt 0.435296 0.814631
vt 0.404904 0.830362
vt 0.311756 0.416047
vt 0.330259 0.251462
vt 0.380454 0.264033
vt 0.363962 0.414945
vt 0.433924 0.018579
vt 0.408949 0.057453
vt 0.379399 0.042076
vt 0.404065 0.000256
vt 0.653768 0.829017
vt 0.504413 0.829017
vt 0.280619 0.462540
vt 0.279118 0.415381
vt 0.404614 0.645998
vt 0.475661 0.780452
vt 0.475661 0.051513
vt 0.452225 0.085003
vt 0.341945 0.209456
vt 0.391564 0.223734
vt 0.310525 0.630988
vt 0.298165 0.245161
vt 0.310696 0.199214
vn 0.0000 1.0000 0.0000
vn 0.0000 0.3661 0.9306
vn -1.0000 0.0000 0.0000
vn 0.9306 0.3661 0.0000
vn -0.7071 0.0000 -0.7071
vn 0.7071 0.0000 0.7071
vn -0.9306 0.3661 0.0000
vn -0.6375 0.4328 -0.6375
vn 0.0000 0.3661 -0.9306
vn 0.0000 0.0000 1.0000
vn 0.6375 0.4328 0.6375
vn 1.0000 0.0000 0.0000
vn -0.6375 0.4328 0.6375
vn 0.7071 0.0000 -0.7071
vn 0.6375 0.4328 -0.6375
vn 0.0000 0.0000 -1.0000
vn -0.7071 0.0000 0.7071
s off
f 142/227/81 140/228/81 144/229/81 141/230/81
f 155/231/82 142/232/82 141/233/82 154/234/82
f 141/230/81 144/229/81 145/235/81 143/236/81
f 149/237/83 157/238/83 156/239/83 151/240/83
f 161/241/84 160/242/84 139/243/84 138/244/84
f 156/245/85 158/246/85 150/247/85 151/248/85
f 140/228/81 142/227/81 138/249/81 139/250/81
f 146/251/86 148/252/86 161/241/86 155/231/86
f 157/238/87 143/253/87 145/254/87 156/239/87
f 145/255/88 144/256/88 158/246/88 156/245/88
f 159/257/89 158/246/89 144/256/89 140/258/89
f 146/251/90 155/231/90 154/234/90 152/259/90
f 155/231/91 161/241/91 138/244/91 142/232/91
f 148/252/92 153/260/92 160/242/92 161/241/92
f 141/233/93 143/253/93 157/238/93 154/234/93
f 159/257/94 160/242/94 153/260/94 147/261/94
f 140/258/95 139/243/95 160/242/95 159/257/95
f 147/261/96 150/247/96 158/246/96 159/257/96
f 154/234/97 157/238/97 149/237/97 152/259/97
